<svg width="16" height="21" viewBox="0 0 16 21" fill="none" xmlns="http://www.w3.org/2000/svg">
<path d="M11.096 7.43572C10.2456 6.89564 8.39405 5.12704 10.295 0.612376C10.3794 0.412316 10.1634 0.217581 9.97399 0.324077C7.78169 1.55487 0.267646 6.3411 1.05115 13.7365C1.05115 17.6913 4.33275 20.8801 8.32102 20.7287C11.859 20.5941 14.7785 17.7757 15.0272 14.2446C15.2387 11.2582 13.5751 8.63684 11.096 7.43572Z" fill="white"/>
<path d="M11.0959 7.43573C10.2021 6.87663 9.63535 5.88013 9.50376 4.84179C9.34477 3.79813 9.54864 2.73774 9.84835 1.73972C9.91833 1.48641 10.0096 1.24071 10.1055 0.99653C10.1686 0.762239 10.3991 0.462529 10.1564 0.356794C10.0591 0.304306 9.96017 0.396349 9.84226 0.461768L9.5068 0.66335L8.84881 1.08705C7.98087 1.66441 7.14639 2.2935 6.36745 2.98344C4.79816 4.34431 3.42969 5.95315 2.47198 7.77576C1.54851 9.60977 1.07384 11.6727 1.30053 13.7099L1.30205 13.7213V13.7365C1.32335 16.1304 2.64846 18.4931 4.77838 19.647C6.8657 20.8344 9.60569 20.8291 11.6793 19.5276C13.775 18.277 15.1138 15.8337 14.9875 13.3531C14.9031 10.8702 13.3361 8.52427 11.0959 7.43573ZM11.0959 7.43573C13.3483 8.49841 14.9548 10.836 15.0727 13.3485C15.2743 15.8527 13.9872 18.4124 11.8391 19.7801C9.72207 21.195 6.79876 21.3281 4.54942 20.0593C2.2666 18.8567 0.76729 16.3213 0.80076 13.7365L0.802281 13.7623C0.596135 11.6248 1.09286 9.44622 2.11142 7.5833C3.15432 5.72951 4.59506 4.1374 6.21912 2.80772C7.02544 2.13375 7.88426 1.52445 8.77274 0.968384L9.44594 0.561418L9.78825 0.368204C9.88942 0.318759 10.0286 0.190964 10.1937 0.268554C10.3458 0.328648 10.3968 0.537076 10.32 0.659546L10.177 1.02315C10.0796 1.26505 9.98527 1.50847 9.91377 1.75874C9.60493 2.74763 9.39041 3.79813 9.53723 4.83495C9.65741 5.86796 10.2081 6.86598 11.0959 7.43573Z" fill="white"/>
</svg>
