<?xml version="1.0" encoding="utf-8"?>
<!-- Generator: Adobe Illustrator 23.0.6, SVG Export Plug-In . SVG Version: 6.00 Build 0)  -->
<svg version="1.1" id="Calque_1" xmlns="http://www.w3.org/2000/svg" xmlns:xlink="http://www.w3.org/1999/xlink" x="0px" y="0px"
	 viewBox="0 0 1027 523" style="enable-background:new 0 0 1027 523;" xml:space="preserve">
<style type="text/css">
	.st0{fill:none;}
	.st1{fill:#77BCE8;}
	.st2{fill:#3C3F91;}
	.st3{fill:none;stroke:#3D53A0;stroke-miterlimit:10;}
	.st4{fill:#1C618F;}
	.st5{fill:#4483C4;}
	.st6{fill:#5FA3D9;}
</style>
<path class="st0" d="M847.82,207.64c84.06,28.55,136.01,67.79,136.01,111.12c0,17.16-8.25,33.66-23.3,49.13
	C902.24,433.3,723.2,480.93,511.29,480.93c-259.19,0-469.31-71.24-469.31-159.13c0-5.77,1.08-11.46,2.85-17.07
	c9.89-37.76,59.24-71.71,134.2-97.14C73.08,238.93,6,284.82,6,336.07c0,94.46,227.15,171.03,507.36,171.03
	s507.36-76.57,507.36-171.03C1020.72,284.85,953.69,238.97,847.82,207.64z"/>
<g>
	<path class="st1" d="M547.23,104.86c-11.18-7.1-35.52-30.35-10.53-89.7c1.11-2.63-1.73-5.19-4.22-3.79
		c-28.82,16.18-127.6,79.1-117.3,176.32c0,51.99,43.14,93.91,95.57,91.92c46.51-1.77,84.89-38.82,88.16-85.24
		C601.69,155.11,579.82,120.65,547.23,104.86z"/>
	<path class="st2" d="M547.23,104.86c-11.75-7.35-19.2-20.45-20.93-34.1c-2.09-13.72,0.59-27.66,4.53-40.78
		c0.92-3.33,2.12-6.56,3.38-9.77c0.83-3.08,3.86-7.02,0.67-8.41c-1.28-0.69-2.58,0.52-4.13,1.38l-4.41,2.65l-8.65,5.57
		c-11.41,7.59-22.38,15.86-32.62,24.93c-20.63,17.89-38.62,39.04-51.21,63c-12.14,24.11-18.38,51.23-15.4,78.01l0.02,0.15l0,0.2
		c0.28,31.47,17.7,62.53,45.7,77.7c27.44,15.61,63.46,15.54,90.72-1.57c27.55-16.44,45.15-48.56,43.49-81.17
		C597.28,150.01,576.68,119.17,547.23,104.86z M547.23,104.86c29.61,13.97,50.73,44.7,52.28,77.73
		c2.65,32.92-14.27,66.57-42.51,84.55c-27.83,18.6-66.26,20.35-95.83,3.67c-30.01-15.81-49.72-49.14-49.28-83.12l0.02,0.34
		c-2.71-28.1,3.82-56.74,17.21-81.23c13.71-24.37,32.65-45.3,54-62.78c10.6-8.86,21.89-16.87,33.57-24.18l8.85-5.35l4.5-2.54
		c1.33-0.65,3.16-2.33,5.33-1.31c2,0.79,2.67,3.53,1.66,5.14l-1.88,4.78c-1.28,3.18-2.52,6.38-3.46,9.67
		c-4.06,13-6.88,26.81-4.95,40.44C528.32,84.25,535.56,97.37,547.23,104.86z"/>
</g>
<path class="st3" d="M655.69,227.99"/>
<path class="st3" d="M353.98,229.22"/>
<g>
	<path class="st4" d="M177.45,451.75c-2.36,7.09-8.92,8.95-14.04,7.3c-5.4-1.76-9.53-6.64-7.45-13.11l7.22-22.26
		c2.09-6.47,8.23-8.02,13.63-6.26c5.18,1.68,9.34,7.03,7.16,14.17l-3.85-1.25c1.48-4.55-1.09-8.02-4.48-9.12
		c-3.5-1.14-7.49-0.18-8.73,3.67l-7.2,22.26c-1.19,3.87,1.48,6.98,4.92,8.1c3.39,1.1,7.5-0.21,8.97-4.75L177.45,451.75z"/>
	<path class="st4" d="M180.16,463.93l8.11-28.16l3.31,0.96l-0.38,2.83c1.72-2.05,4.07-2.14,5.64-1.69c1.22,0.35,2.47,1.03,3.99,2.55
		l-2.25,2.99c-2.69-2.88-7.32-2.94-8.76,0.98L183.87,465L180.16,463.93z"/>
	<path class="st4" d="M208.64,460.19l-5.33-1.39l-0.52,2.02c-0.77,2.96,1,5.96,3.92,6.73c1.64,0.43,3.96,0.14,5.87-1.45l2.52,3.07
		c-3.15,2.73-6.75,2.87-9.39,2.18c-4.91-1.28-8.04-6.28-6.67-11.5l2.78-10.69c1.26-4.86,6.33-8.23,11.47-6.89
		c4.92,1.28,7.95,6.44,6.62,11.55C218.54,459.1,213.5,461.46,208.64,460.19z M209.49,456.93c2.92,0.76,5.89-1.06,6.69-4.09
		c0.77-2.96-0.95-5.95-3.88-6.71c-2.98-0.78-5.95,1.04-6.74,4.07l-1.4,5.34L209.49,456.93z M217.71,433.78l3.35,2.71l-6.09,4.43
		l-3.57-0.93L217.71,433.78z"/>
	<path class="st4" d="M221.81,465.75l0.5-2.15c1.13-4.9,6.24-8.25,11.19-7.11c1.89,0.43,4.46,1.91,4.72,4.54l0.5-2.71
		c0.69-2.99-1.17-5.93-4.12-6.61c-1.34-0.31-3.12,0.09-4.92,1.19l-1.42-3.79c2.21-1.25,5-1.8,7.26-1.29
		c4.88,1.13,8.18,6.23,6.98,11.37l-4.54,19.72l-3.3-0.76l0.26-2.71c-1.72,2.06-4.46,2.12-6.17,1.73
		C223.79,476.02,220.66,470.77,221.81,465.75z M229.62,473.34c2.64,0.61,5.68-0.2,6.28-2.77l1.04-4.54
		c0.66-2.87-1.38-5.04-4.33-5.72c-2.94-0.68-5.85,1.17-6.54,4.16l-0.5,2.15C224.89,469.67,226.68,472.66,229.62,473.34z"/>
	<path class="st4" d="M260.27,453.46l-0.8,3.84l-6.14-1.27l-3.26,15.59c-0.65,3.12,1.89,6.33,5.49,7.09l-0.79,3.78
		c-5.56-1.15-9.58-6.12-8.42-11.64l6.58-31.61l3.73,0.77l-2.54,12.18L260.27,453.46z"/>
	<path class="st4" d="M263.22,484.14l-3.73-0.72l5.59-28.89l3.74,0.72L263.22,484.14z M270.42,450.81
		c-0.28,1.44-1.74,2.29-3.11,2.02c-1.3-0.25-2.22-1.55-1.94-3c0.3-1.56,1.63-2.37,2.93-2.12
		C269.67,447.98,270.72,449.24,270.42,450.81z"/>
	<path class="st4" d="M289.43,479.64c-1.1,6.28-6.4,8.51-11.11,7.68c-4.76-0.85-8.92-4.77-7.83-11.05l1.93-10.99
		c1.11-6.34,6.4-8.52,11.11-7.68c4.77,0.85,8.94,4.71,7.83,11.05L289.43,479.64z M287.55,467.97c0.62-3.57-1.83-5.99-4.69-6.5
		c-2.79-0.5-5.99,0.92-6.62,4.49l-1.93,10.99c-0.64,3.62,1.9,5.94,4.71,6.44c2.85,0.51,5.97-0.81,6.61-4.43L287.55,467.97z"/>
	<path class="st4" d="M301.17,470.33l-3.09,20.06l-3.82-0.58l4.49-29.15l3.23,0.5l0.03,2.98c1.49-2.13,4.2-2.71,6.06-2.42
		c5.02,0.77,8.56,5.95,7.81,10.86l-3.09,20.07l-3.82-0.58l3.09-20.07c0.45-2.97-1.61-5.89-4.65-6.35
		C304.39,465.17,301.61,467.36,301.17,470.33z"/>
	<path class="st4" d="M336,472.98c-1.21-2.39-2.98-3.74-4.54-3.95c-1.61-0.22-3.2,0.25-4.38,1.27c-0.87,0.62-1.57,1.76-1.78,3.29
		c-0.42,2.67,1.75,3.82,4.49,4.31c4.61,0.75,8.68,4.08,7.93,9.73c-0.73,5.97-5.83,8.13-10.51,7.5c-3.24-0.43-6.71-2.81-8.27-6.68
		l3.53-1.32c1.09,2.44,3.16,3.83,5.32,4.12c2.75,0.37,5.68-0.97,6.1-4.14c0.41-3.04-1.98-4.85-4.68-5.27
		c-4.84-0.77-8.46-3.36-7.74-8.78c0.72-5.85,5.76-8.51,10.44-7.89c3,0.41,5.85,2.39,7.62,6.04L336,472.98z"/>
	<path class="st4" d="M342.87,500.43l-2.47-1.22l1.38-2.86c-0.61-0.5-0.71-1.19-0.61-1.99c0.15-1.27,1.26-2.31,2.75-2.14
		c1.44,0.18,2.75,1.94,1.64,3.97L342.87,500.43z"/>
	<path class="st4" d="M382.2,457.4c5.3,0.5,10.43,4.81,9.74,12.07l-3.91-0.37c0.43-4.64-2.77-7.41-6.2-7.73
		c-3.55-0.34-7.17,1.41-7.54,5.32l-0.34,3.6c-0.39,4.15,3.49,5.57,6.85,6.63c4.72,1.43,10.13,3.36,9.45,10.63l-0.43,4.52
		c-0.62,6.65-6.47,9.48-11.83,8.97c-5.53-0.52-10.42-4.81-9.67-12.13l3.85,0.37c-0.45,4.7,2.7,7.4,6.2,7.73
		c3.49,0.33,7.17-1.41,7.54-5.32l0.42-4.52c0.41-4.27-3.19-5.47-6.74-6.43c-5.02-1.53-10.15-3.18-9.49-10.82l0.34-3.6
		C371.06,459.73,376.67,456.87,382.2,457.4z"/>
	<path class="st4" d="M413.21,494.29c-0.49,6.35-5.53,9.11-10.29,8.75c-4.81-0.35-9.33-3.82-8.84-10.17l0.84-11.11
		c0.49-6.41,5.55-9.11,10.29-8.75c4.81,0.36,9.34,3.76,8.84,10.17L413.21,494.29z M410.2,482.89c0.28-3.6-2.4-5.76-5.29-5.97
		c-2.82-0.21-5.86,1.53-6.14,5.13l-0.84,11.11c-0.28,3.66,2.47,5.7,5.29,5.91c2.89,0.22,5.86-1.41,6.14-5.07L410.2,482.89z"/>
	<path class="st4" d="M422.3,504.11l-3.81-0.24l1.83-29.4l3.81,0.24L422.3,504.11z M425.14,470.11c-0.09,1.46-1.44,2.49-2.82,2.4
		c-1.33-0.08-2.41-1.25-2.32-2.73c0.09-1.59,1.32-2.56,2.64-2.48C424.03,467.4,425.24,468.52,425.14,470.11z"/>
	<path class="st4" d="M433.05,484.46l-1.06,20.27l-3.87-0.2l1.53-29.46l3.26,0.17l0.34,2.97c1.26-2.27,3.91-3.11,5.78-3.02
		c5.07,0.27,9.13,5.09,8.87,10.05l-1.06,20.27l-3.87-0.2l1.06-20.27c0.16-3-2.18-5.7-5.26-5.87
		C435.75,479.02,433.2,481.46,433.05,484.46z"/>
	<path class="st4" d="M492.69,502.92l-0.09,3.92c-3.08-0.07-6.23-1.97-6.7-5.29c-0.62,3.23-4.53,5.24-7.31,5.18
		c-5.44-0.12-9.39-4.43-9.25-9.94l0.12-4.77c0.07-3,1.95-5.85,4.41-7.45c-2.32-1.64-3.7-4.43-3.62-7.55l0.07-3.18
		c0.14-5.33,3.97-9.23,9.34-9.12c3.27,0.07,6.29,2.28,8.22,5.26l-3.2,2.26c-1.4-2.36-3.3-3.56-5.11-3.6
		c-2.96-0.06-5.37,2.28-5.44,5.28l-0.08,3.19c-0.07,2.76,1.93,5.55,4.83,5.62l5.97,0.13l0.08-2.88l3.8,0.08l-0.07,2.88l3.99,0.08
		l-0.09,3.92l-3.99-0.08l-0.24,10.17C488.17,502.52,491.48,502.89,492.69,502.92z M484.74,486.76l-6.04-0.13
		c-2.9-0.06-5.32,2.64-5.38,5.47l-0.12,4.77c-0.08,3.19,2.4,5.87,5.48,5.94c3.2,0.06,5.74-2.58,5.82-5.89L484.74,486.76z"/>
	<path class="st4" d="M531.6,491.97l-11.37,0.08c-1.99,8.04-3,11.9-3.69,15.09l-4.18,0.03l9.87-40.44c0.58-1.96,2.16-3.01,3.54-3.02
		c1.33-0.01,2.97,1.15,3.46,2.92l10.62,40.35l-4.3,0.03L531.6,491.97z M525.93,468.06l-4.81,20.07l9.48-0.07L525.93,468.06z
		 M525.81,467.51l0.12,0.55c0-0.12,0-0.18,0.07-0.31L525.81,467.51z"/>
	<path class="st4" d="M560.1,496.15c0.08,5.82-3.78,10.76-9.05,10.88c-5.13,0.13-9.52-4.12-9.64-9.26l-0.27-11.08
		c-0.14-5.39,4.11-9.6,9.2-9.72c4.95-0.12,9.34,4.43,9.55,10.42l-3.87,0.09c-0.08-3.79-2.58-6.61-5.59-6.54
		c-3.02,0.07-5.51,2.58-5.43,5.65l0.27,11.08c0.07,3.07,2.6,5.51,5.68,5.44c3.02-0.07,5.37-3.19,5.28-6.87L560.1,496.15z"/>
	<path class="st4" d="M584.35,495.24c0.18,5.83-3.61,10.83-8.86,11.05c-5.14,0.22-9.6-3.95-9.82-9.1l-0.46-11.08
		c-0.23-5.39,3.96-9.68,9.03-9.89c4.95-0.2,9.43,4.27,9.74,10.27l-3.87,0.16c-0.16-3.8-2.7-6.57-5.71-6.45
		c-3.02,0.13-5.45,2.69-5.33,5.75l0.46,11.08c0.12,3.07,2.71,5.47,5.79,5.34c3.01-0.13,5.3-3.3,5.15-6.97L584.35,495.24z"/>
	<path class="st4" d="M608.31,495.17c0.35,6.37-4.31,9.77-9.09,10.03c-4.83,0.27-9.77-2.58-10.12-8.95l-0.62-11.15
		c-0.35-6.43,4.31-9.77,9.07-10.03c4.84-0.27,9.78,2.52,10.13,8.95L608.31,495.17z M603.82,484.24c-0.2-3.61-3.15-5.41-6.05-5.25
		c-2.83,0.16-5.63,2.28-5.43,5.89l0.62,11.15c0.2,3.68,3.2,5.35,6.04,5.19c2.9-0.16,5.64-2.16,5.44-5.83L603.82,484.24z"/>
	<path class="st4" d="M618.43,503.79l-3.8,0.31l-2.33-29.3l3.12-0.25l0.77,2.88c0.9-2.47,3.47-3.66,5.45-3.82
		c2.83-0.23,6.18,0.79,7.77,4.65c1-4.08,4.03-5.61,7.04-5.85c4.94-0.4,9.51,3.84,9.9,8.78l1.61,20.2l-3.78,0.31l-1.61-20.2
		c-0.24-2.99-2.92-5.35-5.93-5.11c-3.01,0.24-5.26,3.01-5.03,6l1.61,20.2l-3.78,0.31l-1.61-20.2c-0.24-2.99-2.92-5.35-5.98-5.11
		c-3.01,0.24-5.28,3.01-5.03,6L618.43,503.79z"/>
	<path class="st4" d="M672.11,478.13l1.19,11.54c0.52,4.88-3.42,9.81-8.49,10.22c-1.8,0.13-4.42-0.46-5.72-2.48l1.61,15.5
		l-3.85,0.41l-4.38-42.05l3.31-0.35l0.76,2.64c0.81-2.68,3.11-3.47,5.15-3.69C666.69,469.32,671.6,473.18,672.11,478.13z
		 M668.26,478.53c-0.3-2.87-3.09-5.1-6.16-4.77c-3.08,0.32-5.19,2.71-4.94,5.27l1.3,12.45c0.37,2.92,2.44,4.8,5.94,4.44
		c3.01-0.32,5.36-2.86,5.05-5.85L668.26,478.53z"/>
	<path class="st4" d="M678.42,489.11l-0.27-2.19c-0.61-4.99,3.07-9.89,8.1-10.51c1.93-0.24,4.84,0.26,5.98,2.66l-0.45-2.73
		c-0.37-3.04-3.13-5.17-6.13-4.79c-1.37,0.17-2.9,1.16-4.22,2.81l-2.63-3.07c1.65-1.93,4.1-3.41,6.37-3.69
		c4.98-0.62,9.81,3.04,10.44,8.27l2.44,20.07l-3.35,0.41l-0.69-2.63c-0.91,2.52-3.47,3.52-5.21,3.73
		C683.78,498.07,679.04,494.21,678.42,489.11z M688.33,493.55c2.7-0.33,5.29-2.13,4.96-4.75l-0.57-4.62
		c-0.35-2.92-3.01-4.25-6.01-3.89c-3,0.37-5.1,3.1-4.73,6.14l0.27,2.19C682.64,491.73,685.34,493.93,688.33,493.55z"/>
	<path class="st4" d="M715,506.29c-2.03,0.29-5.22-0.29-7.51-1.82l1.76-3.41c1.75,1.11,3.88,1.48,5.19,1.29
		c3.04-0.45,5.21-3.23,4.77-6.21l-0.87-6.06c-0.79,2.53-3.26,3.7-4.98,3.95c-4.91,0.71-9.89-2.1-10.69-7.67l-1.64-11.45
		c-0.68-4.79,3.17-9.81,8.07-10.52c2.33-0.34,4.54,0.21,6.04,2.53l0.11-3.11l3.17-0.46l4.61,32.25
		C723.81,500.93,720.02,505.56,715,506.29z M706.51,485.8c0.58,6.6,12,5.37,11.09-0.99l-1.82-12.67c-0.38-2.6-3.53-4.19-6.12-3.88
		c-2.86,0.42-5.21,3.17-4.8,6.08L706.51,485.8z"/>
	<path class="st4" d="M729.79,470.94l3.3,19.99l-3.81,0.64l-4.79-29.05l3.21-0.54l0.95,2.82c0.76-2.49,3.16-3.88,5-4.19
		c5-0.83,9.98,2.98,10.78,7.88l3.3,19.99l-3.81,0.64l-3.3-19.99c-0.49-2.96-3.35-5.09-6.39-4.58
		C731.27,465.05,729.31,467.98,729.79,470.94z"/>
	<path class="st4" d="M760.68,474.72l-5.4,1.02l0.39,2.04c0.57,3.01,3.46,4.96,6.43,4.39c1.65-0.31,3.63-1.56,4.68-3.82l3.58,1.7
		c-1.67,3.81-4.86,5.47-7.53,5.97c-4.99,0.94-9.96-2.23-10.96-7.53l-2.06-10.83c-0.94-4.94,2.18-10.15,7.41-11.13
		c4.99-0.94,9.93,2.42,10.92,7.6C769.15,469.49,765.6,473.78,760.68,474.72z M760.05,471.41c2.97-0.56,4.87-3.48,4.29-6.55
		c-0.57-3.01-3.4-4.96-6.37-4.4c-3.02,0.57-4.92,3.49-4.34,6.56l1.03,5.41L760.05,471.41z"/>
	<path class="st4" d="M782.28,482.09l-3.72,0.84l-6.42-28.69l3.07-0.69l1.18,2.75c0.54-2.57,2.92-4.12,4.86-4.56
		c2.77-0.62,6.24-0.09,8.34,3.51c0.42-4.18,3.21-6.13,6.16-6.79c4.83-1.1,9.96,2.45,11.04,7.29l4.41,19.78l-3.7,0.84l-4.42-19.78
		c-0.65-2.92-3.63-4.89-6.58-4.22c-2.94,0.66-4.8,3.72-4.15,6.65l4.42,19.78l-3.7,0.84l-4.42-19.78c-0.65-2.93-3.63-4.89-6.63-4.21
		c-2.96,0.66-4.8,3.72-4.15,6.65L782.28,482.09z"/>
	<path class="st4" d="M825.24,460.39l-5.32,1.41l0.53,2.01c0.79,2.96,3.81,4.69,6.74,3.91c1.64-0.43,3.53-1.82,4.41-4.14l3.7,1.42
		c-1.41,3.91-4.48,5.8-7.11,6.5c-4.91,1.3-10.1-1.51-11.49-6.71l-2.82-10.64c-1.29-4.85,1.48-10.26,6.62-11.62
		c4.92-1.3,10.09,1.7,11.45,6.78C833.35,454.57,830.09,459.1,825.24,460.39z M824.38,457.14c2.93-0.77,4.62-3.82,3.82-6.84
		c-0.79-2.96-3.76-4.7-6.69-3.93c-2.97,0.79-4.68,3.83-3.88,6.85l1.41,5.32L824.38,457.14z"/>
	<path class="st4" d="M841.43,446.62l5.82,19.43l-3.7,1.11l-8.46-28.24l3.13-0.94l1.3,2.68c0.43-2.56,2.63-4.25,4.44-4.79
		c4.86-1.46,10.28,1.71,11.7,6.46l5.82,19.44l-3.7,1.11l-5.82-19.44c-0.85-2.88-3.97-4.62-6.92-3.74
		C842.14,440.58,840.56,443.74,841.43,446.62z"/>
	<path class="st4" d="M868.14,428.5l1.25,3.72l-5.95,2.01l5.07,15.1c1,3.02,4.83,4.52,8.31,3.34l1.23,3.66
		c-5.38,1.81-11.37-0.44-13.16-5.78l-10.28-30.6l3.61-1.21l3.96,11.79L868.14,428.5z"/>
</g>
<g>
	<path class="st5" d="M207.19,387.26c-2.43,0.87-4.98,1.26-7.65,1.17s-5.22-0.64-7.66-1.65c-2.39-0.99-4.61-2.33-6.67-4.03
		c-2.08-1.7-3.82-3.63-5.29-5.8l0.18-0.41c2.98-0.6,5.98-0.77,9.01-0.49c3.01,0.28,5.9,1,8.68,2.15c1.71,0.71,3.34,1.56,4.88,2.55
		s3,2.14,4.37,3.43c1.95-1.1,5.94-5.28,11.98-12.55l1.48-1.82c-3.12-0.54-6.21-1.25-9.28-2.16c-3.05-0.9-6.12-1.99-9.2-3.26
		c-8.27-3.43-14.15-7.22-17.62-11.35c-3.47-4.13-4.31-8.35-2.52-12.67c1.78-4.29,5.45-6.77,11.05-7.44
		c5.59-0.67,12.3,0.62,20.15,3.87c2.82,1.17,5.59,2.48,8.33,3.91c2.73,1.43,5.36,2.96,7.89,4.58l0.12,0.62l-0.39,0.75l-0.58,0.14
		c-3.24-1.92-6.14-3.54-8.68-4.86c-2.54-1.32-4.8-2.4-6.81-3.23c-6.52-2.7-12.18-3.72-16.97-3.05c-4.8,0.67-7.97,2.88-9.52,6.63
		c-1.51,3.63-0.71,7.29,2.41,10.95c3.13,3.67,8.26,6.98,15.41,9.94c2.36,0.98,5.02,1.89,7.99,2.72c2.96,0.83,6.23,1.57,9.81,2.23
		c7-9.51,13.78-16.17,20.36-19.98c6.58-3.81,12.57-4.59,18-2.34c2.56,1.06,4.27,2.56,5.14,4.49c0.87,1.94,0.8,4.12-0.2,6.53
		c-1.82,4.37-6.18,7.84-13.12,10.4c-6.94,2.56-15.23,3.72-24.9,3.47c-3.34,3.74-6.44,6.86-9.33,9.34c-2.9,2.49-5.8,4.53-8.72,6.12
		c3.73,3.59,7.6,6.72,11.58,9.41c3.99,2.69,7.96,4.86,11.92,6.5c2.83,1.17,5.03,1.68,6.61,1.52c1.57-0.16,2.69-1.01,3.32-2.56
		c0.65-1.55,0.46-3.07-0.53-4.56c-1-1.5-2.66-2.73-4.96-3.68c-1.27-0.53-2.58-0.92-3.91-1.19c-1.32-0.26-2.64-0.37-3.97-0.31
		l-0.37-0.25l0.04-0.79l0.45-0.39c1.34-0.18,2.74-0.15,4.19,0.07c1.45,0.22,2.9,0.63,4.34,1.23c2.79,1.16,4.75,2.74,5.86,4.74
		c1.1,2.01,1.22,4.08,0.33,6.23c-1.07,2.58-2.97,4.19-5.68,4.85c-2.73,0.65-5.87,0.24-9.45-1.25c-3-1.24-6.39-3.46-10.17-6.66
		C215.1,395.89,211.2,391.95,207.19,387.26z M205.27,385.32c-0.85-1.06-1.79-1.96-2.78-2.71c-1-0.75-2.1-1.38-3.32-1.88
		c-1.65-0.69-3.47-0.96-5.45-0.8c-1.97,0.15-4.1,0.73-6.4,1.76c0.49,0.65,1.1,1.23,1.8,1.75c0.71,0.52,1.56,0.98,2.56,1.4
		c2.54,1.04,4.95,1.61,7.27,1.7C201.27,386.63,203.37,386.22,205.27,385.32z M228.8,368.88c2.48,0.23,5.09,0.15,7.83-0.24
		c2.74-0.39,5.57-1.09,8.5-2.1c4.6-1.5,8.57-3.35,11.92-5.55c3.35-2.21,5.41-4.23,6.17-6.08c0.69-1.65,0.8-3.11,0.33-4.35
		c-0.47-1.25-1.51-2.2-3.11-2.87c-3.72-1.54-8.23-0.53-13.54,3.02C241.59,354.27,235.55,360.33,228.8,368.88z"/>
	<path class="st5" d="M298.42,395.47c0.05,0.14,0.08,0.3,0.08,0.48c0,0.18-0.03,0.39-0.09,0.61c-0.22,0.83-0.79,1.78-1.72,2.85
		c-0.94,1.08-2.28,2.34-4.03,3.8c-5.15,4.2-10.16,7.17-15,8.9c-4.84,1.73-9.18,2.1-13.02,1.09c-3.13-0.83-5.34-2.47-6.66-4.92
		c-1.32-2.45-1.53-5.35-0.66-8.67c0.61-2.27,1.71-4.46,3.34-6.58c1.61-2.11,3.68-4.03,6.17-5.78c2.27-1.59,4.64-2.69,7.11-3.28
		c2.47-0.6,4.71-0.63,6.73-0.09c2.08,0.54,3.63,1.57,4.68,3.08c1.04,1.51,1.34,3.13,0.88,4.86c-0.73,2.81-3.24,5.19-7.5,7.12
		c-4.26,1.93-9.53,3.01-15.83,3.24c-0.61,2.3-0.5,4.27,0.33,5.89c0.81,1.63,2.22,2.71,4.25,3.24c3.63,0.96,8.19,0.04,13.67-2.74
		C286.59,405.78,292.36,401.42,298.42,395.47z M263.41,400.16c4.39,0.16,8.27-0.75,11.61-2.73c3.35-1.97,5.43-4.51,6.25-7.61
		c0.27-1.05,0.23-1.93-0.11-2.64c-0.34-0.71-0.98-1.19-1.93-1.44c-2.29-0.61-4.99,0.45-8.08,3.18
		C268.08,391.64,265.49,395.39,263.41,400.16z"/>
	<path class="st5" d="M303.97,420.23c-1.61,0.38-3.13,0.59-4.57,0.63c-1.44,0.04-2.79-0.07-4.1-0.35c-2.59-0.54-4.58-1.44-5.98-2.7
		c-1.4-1.25-1.95-2.6-1.65-4.04c0.24-1.13,0.91-1.95,2.02-2.48c1.1-0.54,2.39-0.64,3.85-0.34c0.43,0.09,0.84,0.22,1.25,0.38
		c0.41,0.16,0.77,0.35,1.11,0.57l-0.07,0.35c-0.62,0.23-1.14,0.58-1.57,1.04c-0.42,0.47-0.71,1-0.83,1.6
		c-0.19,0.9,0.09,1.72,0.84,2.48c0.76,0.76,1.83,1.28,3.21,1.57c2.16,0.45,4.06,0.29,5.71-0.48c1.64-0.78,2.64-1.97,2.98-3.59
		c0.22-1.06,0.11-2.12-0.33-3.17c-0.43-1.05-1.64-2.69-3.61-4.9c-2.32-2.65-3.76-4.58-4.31-5.8c-0.56-1.21-0.72-2.39-0.47-3.55
		c0.49-2.33,2.24-4.12,5.24-5.38c3-1.26,6.31-1.51,9.94-0.75c2.09,0.44,3.59,1.11,4.49,1.99c0.9,0.87,1.19,1.99,0.91,3.34
		c-0.22,1.06-1.02,1.91-2.4,2.54c-1.38,0.62-2.94,0.81-4.69,0.56l-0.2-0.5c0.66-0.34,1.19-0.77,1.6-1.28
		c0.39-0.52,0.65-1.09,0.79-1.73c0.16-0.75-0.05-1.43-0.62-2.07c-0.57-0.63-1.42-1.06-2.54-1.3c-1.7-0.35-3.19-0.23-4.45,0.37
		c-1.27,0.6-2.03,1.53-2.29,2.76c-0.34,1.61,0.81,3.87,3.47,6.77c0.92,1.04,1.64,1.85,2.16,2.43c1.29,1.57,2.18,3,2.67,4.31
		c0.49,1.3,0.6,2.58,0.34,3.81c-0.19,0.89-0.58,1.72-1.18,2.5c-0.6,0.78-1.44,1.53-2.52,2.26c2.37,0.11,5.55-1.28,9.52-4.16
		c3.97-2.89,8.53-7.09,13.66-12.62c0.12,0.14,0.19,0.31,0.2,0.5c0.03,0.18,0.01,0.39-0.04,0.62c-0.18,0.86-0.83,1.97-1.97,3.34
		c-1.13,1.37-2.7,2.95-4.73,4.75c-4.26,3.85-8.02,6.51-11.26,7.99C310.3,419.98,307.11,420.56,303.97,420.23z"/>
	<path class="st5" d="M385.4,398.57c-1.21-0.08-2.33-0.16-3.39-0.24c-1.06-0.08-2.05-0.18-2.98-0.28
		c-7.35-0.86-13.02-2.85-16.98-5.96c-3.97-3.11-5.7-6.9-5.18-11.37c0.46-3.97,2.26-7.05,5.38-9.24c3.13-2.2,6.98-3.02,11.57-2.49
		c1.84,0.22,3.92,0.69,6.25,1.42c2.32,0.73,6.04,2.15,11.15,4.26c6.08,2.45,10.81,4.24,14.21,5.34c3.4,1.11,6.17,1.79,8.3,2.04
		c2.58,0.3,5.24,0.2,7.99-0.29c2.74-0.49,5.62-1.39,8.61-2.69l0.61,0.07l0.5,0.68l-0.18,0.74c-3.77,2.08-7.76,3.49-11.99,4.25
		c-4.23,0.77-8.72,0.87-13.44,0.31c-4.5-0.52-10.36-2.2-17.6-5.03c-0.85-0.31-1.49-0.54-1.93-0.71c-1.38-0.54-3.3-1.29-5.72-2.22
		c-6.25-2.48-10.28-3.82-12.08-4.03c-2.51-0.3-4.65,0.3-6.43,1.78c-1.76,1.48-2.81,3.5-3.11,6.07c-0.45,3.85,1.17,7.17,4.83,9.96
		c3.68,2.78,8.84,4.56,15.53,5.34c1.02,0.12,2.14,0.21,3.36,0.28c1.22,0.07,2.59,0.12,4.14,0.16c0.3-0.35,0.72-0.83,1.23-1.46
		c2.79-3.4,5.03-5.41,6.74-6.04l8.37-3.24l0.12,0.42c-1.13,1.08-2.51,2.47-4.12,4.18c-1.63,1.7-3.42,3.65-5.38,5.85
		c2.16-0.01,4.42-0.14,6.78-0.36c2.36-0.22,4.76-0.56,7.17-0.98l0.42,0.23l0.19,1l-0.46,0.52c-1.95,0.48-4.27,0.87-6.97,1.18
		c-2.7,0.31-5.68,0.51-8.95,0.6c-3.12,4.14-5.55,8.09-7.31,11.86c-1.76,3.78-2.83,7.37-3.24,10.78c-0.49,4.23,0.23,7.72,2.16,10.48
		c1.93,2.75,4.72,4.35,8.4,4.77c2.52,0.29,5-0.05,7.47-1.03s4.81-2.56,7.05-4.73c1.76-1.69,3.21-3.59,4.33-5.7
		c1.13-2.12,1.8-4.25,2.06-6.37c0.22-1.9-0.04-3.44-0.77-4.62s-1.84-1.86-3.34-2.03c-2.77-0.33-5.67,0.59-8.68,2.75
		c-3.02,2.16-5.59,5.2-7.7,9.13l-0.47,0.21l-0.73-0.18l-0.28-0.65c1.94-4.15,4.61-7.43,8.02-9.85c3.4-2.41,6.7-3.43,9.87-3.06
		c2.51,0.29,4.45,1.36,5.79,3.21c1.36,1.84,1.87,4.15,1.55,6.92c-0.33,2.75-1.48,5.47-3.46,8.16c-1.99,2.7-4.54,4.96-7.65,6.78
		c-1.89,1.15-3.99,1.96-6.31,2.44c-2.32,0.48-4.6,0.59-6.85,0.33c-5.1-0.6-9.07-2.83-11.91-6.71c-2.82-3.89-3.92-8.56-3.28-14.06
		c0.38-3.21,1.32-6.43,2.82-9.65C380.99,404.55,382.96,401.48,385.4,398.57z"/>
	<path class="st5" d="M460.47,415.11c0.07,0.3,0.11,0.53,0.14,0.69c0.01,0.16,0.01,0.32,0.01,0.47c-0.09,1.35-1.55,3.67-4.38,6.96
		c-0.45,0.53-0.79,0.94-1.04,1.21c-5.62,6.77-9.59,11.03-11.95,12.8c-2.35,1.76-4.56,2.58-6.65,2.45c-1.84-0.12-3.26-0.71-4.22-1.75
		c-0.96-1.04-1.38-2.48-1.27-4.3c0.14-2.05,1.13-4.8,2.98-8.25c1.84-3.44,4.45-7.3,7.77-11.56c-1.82,0.97-3.53,1.72-5.09,2.24
		c-1.56,0.52-2.79,0.75-3.7,0.69c-1.13-0.07-1.95-0.39-2.51-0.96c-0.56-0.56-0.8-1.36-0.73-2.39c0.11-1.76,0.77-3.32,1.95-4.69
		c1.19-1.37,2.52-2.1,4-2.18l0.16,0.27c-0.46,0.77-0.77,1.35-0.95,1.76c-0.18,0.4-0.27,0.76-0.28,1.09
		c-0.05,0.76,0.12,1.34,0.53,1.73c0.39,0.39,1.04,0.62,1.93,0.68c0.91,0.05,2.18-0.09,3.82-0.47c1.64-0.37,4.01-1.04,7.11-2.02
		l0.34,0.28c-4.96,9.03-8.11,14.95-9.44,17.8c-1.33,2.84-2.03,4.84-2.1,5.98c-0.04,0.73,0.15,1.37,0.58,1.91
		c0.43,0.55,0.96,0.83,1.59,0.87c1.42,0.09,3.51-1.17,6.24-3.78C448.03,430.07,453.09,424.21,460.47,415.11z"/>
	<path class="st5" d="M480.27,432.01c0.14,0.62,0.39,1.1,0.77,1.44c0.39,0.34,0.87,0.52,1.46,0.53c1.17,0.04,2.89-1.12,5.15-3.47
		c2.27-2.35,6.12-7.09,11.56-14.21c0.08,0.16,0.15,0.33,0.18,0.52c0.04,0.19,0.05,0.38,0.05,0.56c-0.03,0.67-0.31,1.5-0.87,2.48
		c-0.57,0.98-1.64,2.46-3.24,4.44c-4.19,5.3-7.31,8.83-9.36,10.59c-2.03,1.76-3.81,2.61-5.3,2.56c-0.65-0.02-1.26-0.17-1.82-0.45
		c-0.57-0.28-1.09-0.71-1.57-1.29c-2.16,2.05-4.26,3.54-6.33,4.47c-2.08,0.94-4.19,1.36-6.33,1.3c-3.43-0.11-6.16-1.24-8.15-3.39
		c-2.01-2.16-2.96-4.96-2.85-8.43c0.08-2.44,0.71-4.82,1.84-7.15c1.15-2.33,2.81-4.58,4.96-6.74c2.13-2.16,4.39-3.81,6.8-4.94
		c2.4-1.13,4.77-1.65,7.13-1.58c2.9,0.09,5.28,1.26,7.12,3.49c1.83,2.24,2.7,5.03,2.59,8.38c-0.05,1.74-0.39,3.51-1,5.31
		C482.44,428.21,481.52,430.08,480.27,432.01z M479.59,417.65c-0.34-2.1-1-3.7-1.98-4.8s-2.24-1.68-3.76-1.74
		c-0.85-0.03-1.72,0.17-2.62,0.58c-0.91,0.41-1.8,1.02-2.71,1.81c-2.39,2.1-4.37,4.83-5.93,8.19c-1.57,3.36-2.4,6.61-2.51,9.75
		c-0.08,2.5,0.37,4.45,1.34,5.87c0.96,1.41,2.36,2.15,4.18,2.2c1.51,0.05,3.08-0.54,4.73-1.76c1.65-1.23,3.35-3.07,5.07-5.55
		c-0.19-0.45-0.33-0.94-0.41-1.49c-0.09-0.54-0.12-1.15-0.09-1.83c0.05-1.79,0.47-3.64,1.26-5.54
		C476.95,421.44,478.09,419.54,479.59,417.65z"/>
	<path class="st5" d="M494.63,430.28l5.87-17.73c0.18-0.5,0.41-0.87,0.66-1.12c0.27-0.25,0.62-0.42,1.06-0.5l3.31-0.6l0.35,0.01
		c0.22,0,0.37,0.05,0.49,0.16s0.18,0.26,0.18,0.46c0,0.15-0.01,0.26-0.03,0.33c-0.01,0.07-0.04,0.14-0.07,0.2l-6.23,19.01
		c-0.52,1.53-0.88,2.78-1.13,3.76s-0.37,1.7-0.37,2.14c0,0.82,0.19,1.46,0.58,1.92c0.39,0.46,0.95,0.69,1.65,0.69
		c1.79,0.01,4.41-1.84,7.85-5.57s7.79-9.39,13.03-16.97c0.05,0.26,0.09,0.49,0.12,0.66c0.03,0.18,0.04,0.34,0.04,0.48
		c0,1.36-1.34,3.83-4,7.43c-0.42,0.56-0.73,0.98-0.94,1.27c-4.23,5.56-7.77,9.5-10.61,11.82c-2.83,2.33-5.48,3.48-7.95,3.47
		c-1.59-0.01-2.86-0.52-3.81-1.52c-0.95-1.01-1.41-2.35-1.41-4.02c0.01-0.59,0.12-1.38,0.35-2.36
		C493.89,432.7,494.21,431.57,494.63,430.28z M508.41,402.76c-1.18-0.01-2.35-0.34-3.5-0.99c-1.17-0.65-1.74-1.27-1.74-1.86
		c0-0.5,0.34-1.36,1.03-2.57c0.68-1.21,1.15-1.82,1.42-1.82c0.35,0.01,0.84,0.23,1.46,0.67c0.62,0.45,1.06,0.73,1.3,0.85
		c0.18,0.09,0.39,0.19,0.65,0.31c0.85,0.39,1.27,0.83,1.27,1.33c-0.01,1.47-0.16,2.52-0.46,3.15
		C509.57,402.45,509.08,402.76,508.41,402.76z"/>
	<path class="st5" d="M532.22,439.7c-1.49,0.73-2.93,1.28-4.31,1.65c-1.4,0.36-2.75,0.56-4.07,0.58c-2.64,0.05-4.79-0.39-6.44-1.3
		c-1.64-0.91-2.48-2.1-2.51-3.57c-0.03-1.15,0.45-2.1,1.4-2.87c0.96-0.77,2.18-1.17,3.69-1.19c0.43-0.01,0.87,0.02,1.3,0.09
		c0.42,0.06,0.83,0.17,1.21,0.31l0.01,0.35c-0.56,0.37-0.99,0.82-1.3,1.37c-0.31,0.55-0.46,1.13-0.45,1.75
		c0.01,0.91,0.47,1.65,1.38,2.22c0.91,0.57,2.06,0.84,3.47,0.81c2.21-0.04,4.03-0.62,5.47-1.75c1.42-1.13,2.13-2.52,2.1-4.16
		c-0.03-1.09-0.37-2.1-1.03-3.02c-0.66-0.92-2.2-2.25-4.61-3.97c-2.86-2.07-4.69-3.63-5.51-4.69c-0.81-1.06-1.23-2.17-1.25-3.35
		c-0.05-2.38,1.25-4.52,3.89-6.42c2.63-1.91,5.8-2.89,9.51-2.96c2.14-0.04,3.76,0.27,4.83,0.93c1.07,0.66,1.61,1.68,1.64,3.05
		c0.01,1.09-0.57,2.1-1.78,3.01c-1.21,0.92-2.69,1.45-4.45,1.6l-0.31-0.43c0.58-0.48,1-1.02,1.27-1.61c0.26-0.6,0.39-1.21,0.38-1.86
		c-0.01-0.77-0.37-1.39-1.07-1.88c-0.71-0.49-1.63-0.72-2.77-0.7c-1.74,0.03-3.15,0.48-4.26,1.36c-1.1,0.87-1.63,1.94-1.61,3.21
		c0.04,1.64,1.67,3.58,4.91,5.81c1.14,0.81,2.02,1.44,2.64,1.89c1.61,1.23,2.79,2.43,3.57,3.59c0.77,1.16,1.17,2.37,1.19,3.63
		c0.01,0.92-0.18,1.82-0.58,2.71c-0.42,0.89-1.07,1.81-1.97,2.77c2.35-0.43,5.13-2.49,8.35-6.19s6.71-8.82,10.47-15.36
		c0.15,0.12,0.26,0.26,0.33,0.43c0.05,0.18,0.09,0.38,0.09,0.62c0.01,0.88-0.37,2.12-1.17,3.7c-0.8,1.59-1.98,3.48-3.55,5.68
		c-3.3,4.71-6.35,8.14-9.18,10.31C538.33,438.04,535.35,439.32,532.22,439.7z"/>
	<path class="st5" d="M605.17,405.35l-2.74,13.31c5.15-13.01,10.02-23.1,14.59-30.27c4.56-7.16,8.54-10.92,11.94-11.26
		c1.64-0.16,2.94,0.25,3.93,1.24c0.99,1,1.59,2.52,1.79,4.56c0.04,0.41,0,1.18-0.12,2.31c-0.12,1.14-0.35,2.73-0.68,4.77
		l-4.48,27.65c5-12.79,9.96-23.01,14.85-30.67c4.9-7.66,8.95-11.64,12.14-11.96c1.37-0.14,2.58,0.26,3.61,1.19
		c1.04,0.93,1.64,2.17,1.79,3.72c0.19,1.82-0.94,7.53-3.36,17.13l-0.57,2.32c-2.1,8.4-3.43,14.32-3.97,17.79
		c-0.53,3.47-0.69,6.29-0.47,8.48c0.2,2.02,0.76,3.57,1.67,4.65c0.91,1.07,2.03,1.55,3.38,1.41c1.93-0.2,4.35-2.28,7.28-6.25
		c2.92-3.97,6.48-10.02,10.69-18.15c0.16,0.22,0.3,0.45,0.39,0.67c0.09,0.22,0.16,0.47,0.19,0.73c0.09,1.02-0.88,3.36-2.93,6.98
		l-0.3,0.52c-3.91,6.77-7.03,11.41-9.37,13.92c-2.35,2.51-4.67,3.88-6.94,4.1c-2.51,0.26-4.62-0.47-6.35-2.17
		c-1.72-1.7-2.74-4.08-3.04-7.11c-0.26-2.54-0.08-5.8,0.52-9.76c0.61-3.96,1.99-10.21,4.14-18.76c0.38-1.51,0.92-3.56,1.6-6.14
		c1.38-5.37,2.02-8.61,1.9-9.72c-0.07-0.67-0.26-1.19-0.6-1.53c-0.33-0.35-0.75-0.5-1.23-0.45c-1.84,0.18-4.69,3.26-8.56,9.21
		c-3.87,5.96-7.79,13.57-11.79,22.83c-2.43,5.62-4.62,12.02-6.62,19.23c-0.18,0.66-0.3,1.15-0.39,1.46
		c-0.08,0.31-0.2,0.75-0.35,1.32c-0.46,1.85-1.15,2.85-2.09,3l-3.13,0.58l-0.39,0.03c-0.41,0.05-0.69,0.02-0.84-0.07
		c-0.16-0.09-0.26-0.26-0.28-0.52c-0.01-0.18-0.01-0.35,0-0.51c0.01-0.17,0.05-0.46,0.14-0.88l7.74-41.89
		c0.6-3.22,0.95-5.49,1.09-6.8c0.14-1.31,0.16-2.37,0.08-3.19c-0.07-0.62-0.28-1.08-0.65-1.4s-0.88-0.45-1.52-0.38
		c-1.59,0.16-3.93,2.48-7.05,6.96c-3.13,4.48-6.36,10.28-9.72,17.41c-2.16,4.71-4.04,9.34-5.67,13.92
		c-1.61,4.58-2.94,9.06-3.99,13.45c-0.12,0.54-0.27,1.27-0.45,2.17c-0.37,2.17-1.15,3.35-2.33,3.56l-3.21,0.68l-0.35,0.03
		c-0.35,0.03-0.61,0-0.79-0.12c-0.18-0.12-0.27-0.31-0.3-0.57c-0.03-0.26,0.03-0.73,0.16-1.39c0.03-0.12,0.04-0.21,0.07-0.27
		l7.88-40.53c0.27-1.47,0.45-2.83,0.54-4.09c0.09-1.25,0.09-2.35,0-3.32c-0.33-3.24-1.55-5.7-3.65-7.36c-2.1-1.66-4.8-2.33-8.1-1.99
		c-4.22,0.42-7.57,1.99-10.08,4.71c-2.5,2.71-3.57,5.91-3.2,9.6c0.27,2.6,1.25,4.65,2.97,6.12c1.71,1.49,3.81,2.1,6.29,1.84
		c0.73-0.07,1.53-0.24,2.39-0.5c0.87-0.26,1.75-0.64,2.69-1.11l0.5,0.17l0.31,0.5l-0.22,0.46c-1.11,0.68-2.29,1.23-3.55,1.65
		s-2.54,0.69-3.81,0.83c-3.36,0.33-6.08-0.26-8.14-1.78c-2.06-1.52-3.24-3.77-3.54-6.75c-0.18-1.84,0.07-3.68,0.73-5.5
		c0.68-1.82,1.74-3.52,3.17-5.08c1.8-1.93,3.89-3.49,6.25-4.69c2.36-1.2,4.8-1.93,7.32-2.18c4.44-0.45,8.29,0.5,11.53,2.83
		c3.26,2.33,5.07,5.45,5.47,9.33c0.3,3.04-0.26,8.12-1.67,15.23L605.17,405.35z"/>
	<path class="st5" d="M699.18,415.66c0.26,0.58,0.61,1,1.04,1.25c0.45,0.25,0.96,0.32,1.55,0.22c1.15-0.21,2.6-1.7,4.33-4.47
		c1.72-2.77,4.5-8.21,8.34-16.3c0.11,0.13,0.2,0.28,0.28,0.46c0.08,0.18,0.14,0.36,0.16,0.54c0.12,0.66,0.01,1.53-0.34,2.61
		c-0.34,1.08-1.09,2.75-2.24,5.01c-3,6.06-5.32,10.17-6.94,12.31c-1.64,2.14-3.19,3.34-4.67,3.61c-0.64,0.12-1.26,0.09-1.87-0.07
		c-0.61-0.16-1.21-0.47-1.8-0.93c-1.68,2.45-3.43,4.35-5.26,5.69c-1.84,1.34-3.81,2.2-5.93,2.58c-3.38,0.61-6.28,0.07-8.68-1.62
		c-2.41-1.69-3.92-4.24-4.53-7.66c-0.43-2.4-0.33-4.86,0.31-7.37c0.64-2.52,1.79-5.07,3.44-7.63c1.63-2.56,3.5-4.65,5.63-6.25
		c2.12-1.6,4.33-2.61,6.63-3.02c2.88-0.52,5.44,0.13,7.7,1.93c2.25,1.8,3.69,4.35,4.27,7.65c0.31,1.71,0.35,3.51,0.12,5.4
		S699.99,413.52,699.18,415.66z M695.53,401.77c-0.77-1.98-1.76-3.41-2.94-4.29c-1.19-0.88-2.54-1.19-4.04-0.92
		c-0.84,0.15-1.65,0.52-2.44,1.11c-0.79,0.59-1.55,1.36-2.27,2.33c-1.91,2.55-3.27,5.63-4.11,9.24c-0.83,3.61-0.96,6.96-0.41,10.06
		c0.43,2.46,1.27,4.28,2.52,5.46c1.25,1.18,2.75,1.61,4.56,1.29c1.46-0.26,2.89-1.17,4.26-2.71c1.36-1.54,2.63-3.7,3.81-6.48
		c-0.28-0.4-0.53-0.85-0.72-1.38c-0.2-0.52-0.35-1.11-0.47-1.77c-0.31-1.76-0.28-3.66,0.08-5.68
		C693.72,406.02,694.44,403.93,695.53,401.77z"/>
	<path class="st5" d="M713.58,420.44l1.8-27.24c0.08-0.93,0.23-1.57,0.45-1.94c0.22-0.37,0.56-0.67,1-0.9l2.88-1.44
		c0.03-0.01,0.09-0.03,0.19-0.07c0.09-0.04,0.22-0.07,0.37-0.11c0.22-0.05,0.42-0.04,0.57,0.04c0.16,0.09,0.26,0.24,0.31,0.47
		c0.04,0.14,0.05,0.26,0.07,0.35c0,0.09,0,0.18-0.01,0.27l-1.46,20.41c2.81-7.94,5.43-13.96,7.85-18.07
		c2.41-4.1,4.72-6.42,6.89-6.93c1.34-0.32,2.6-0.12,3.77,0.6s1.91,1.77,2.24,3.14c0.18,0.77,0.26,1.82,0.23,3.16
		c-0.04,1.34-0.19,3.36-0.45,6.08c-0.07,0.5-0.14,1.2-0.23,2.1c-0.64,5.95-0.83,9.53-0.54,10.73c0.09,0.37,0.34,0.67,0.73,0.89
		c0.41,0.22,0.83,0.28,1.29,0.18c1.29-0.31,3.01-2.42,5.15-6.34c2.16-3.93,4.98-10.1,8.48-18.54c0.16,0.14,0.28,0.3,0.37,0.46
		c0.08,0.16,0.15,0.33,0.18,0.5c0.28,1.2-0.69,4.32-2.94,9.35c-0.46,1.01-0.81,1.79-1.07,2.34c-2.47,5.56-4.6,9.6-6.4,12.11
		c-1.8,2.51-3.57,3.97-5.29,4.37c-1.48,0.35-2.83,0.14-4.07-0.66c-1.23-0.79-2.03-1.98-2.4-3.55c-0.27-1.14-0.16-4.29,0.34-9.45
		c0.2-1.95,0.35-3.5,0.45-4.64c0.22-2.53,0.35-4.37,0.41-5.51c0.07-1.15,0.05-1.87-0.01-2.19c-0.08-0.34-0.3-0.61-0.65-0.8
		c-0.34-0.19-0.71-0.24-1.07-0.15c-1.06,0.25-2.41,1.75-4.08,4.5c-1.65,2.75-3.43,6.43-5.33,11.05c-0.91,2.3-1.67,4.43-2.29,6.39
		c-0.62,1.96-1.09,3.77-1.38,5.45c-0.08,0.32-0.15,0.77-0.22,1.36c-0.18,1.34-0.69,2.2-1.56,2.59l-3.08,1.36l-0.39,0.09
		c-0.26,0.06-0.46,0.05-0.62-0.05c-0.15-0.09-0.26-0.28-0.33-0.54c-0.07-0.28-0.11-0.51-0.11-0.67
		C713.57,420.8,713.57,420.62,713.58,420.44z"/>
	<path class="st5" d="M772.02,393.96c-1.09,5.13-2.32,9.02-3.7,11.64c-1.38,2.63-3.01,4.24-4.9,4.82c-2.21,0.68-4.22,0.45-6.01-0.72
		s-3.11-3.1-3.95-5.79c-0.81-2.64-1.03-5.46-0.65-8.45c0.38-3,1.34-5.99,2.9-9.01c1.32-2.59,2.9-4.77,4.73-6.54
		c1.83-1.77,3.74-2.96,5.74-3.58c0.65-0.2,1.37-0.33,2.14-0.39c0.79-0.05,1.7-0.03,2.75,0.07l-1.25-26.05
		c-0.01-0.03-0.03-0.07-0.04-0.13c-0.08-1.15,0.24-1.89,0.96-2.24l3.15-1.48l0.16-0.05c0.28-0.09,0.5-0.08,0.68,0.02
		c0.16,0.1,0.28,0.28,0.37,0.53c0.04,0.12,0.07,0.31,0.09,0.58c0,0.21,0.01,0.35,0.03,0.41l1.87,49.35
		c0.03,1.07,0.05,1.85,0.11,2.35c0.04,0.5,0.12,0.91,0.22,1.25c0.27,0.84,0.57,1.4,0.92,1.68c0.34,0.28,0.77,0.34,1.27,0.18
		c1.13-0.35,2.47-2.3,4.04-5.85c1.59-3.55,4.08-10.47,7.5-20.76c0.11,0.12,0.2,0.27,0.3,0.44c0.11,0.17,0.19,0.37,0.26,0.59
		c0.39,1.26-0.27,4.34-1.98,9.24l-0.46,1.34c-2.36,6.76-4.33,11.38-5.89,13.85c-1.56,2.46-3.31,4-5.24,4.6
		c-1.23,0.39-2.35,0.33-3.32-0.14c-0.98-0.48-1.65-1.3-2.01-2.45c-0.31-0.98-0.53-2.22-0.66-3.7
		C772.04,398.08,771.99,396.21,772.02,393.96z M771.29,379.09c-0.72-0.54-1.38-0.9-1.98-1.04c-0.6-0.16-1.23-0.12-1.91,0.08
		c-0.98,0.31-1.91,1.04-2.79,2.21c-0.9,1.17-1.78,2.81-2.66,4.93c-1.46,3.59-2.4,7.07-2.81,10.44c-0.39,3.37-0.24,6.19,0.46,8.46
		c0.41,1.32,0.98,2.24,1.7,2.78c0.72,0.53,1.57,0.64,2.59,0.33c2.05-0.64,3.8-3.59,5.24-8.87S771.29,386.69,771.29,379.09z"/>
	<path class="st5" d="M822.2,362.06c0.12,0.07,0.23,0.19,0.34,0.33c0.11,0.15,0.2,0.33,0.3,0.55c0.31,0.79,0.42,1.9,0.31,3.32
		c-0.11,1.42-0.42,3.24-0.96,5.45c-1.6,6.45-3.84,11.82-6.69,16.11c-2.85,4.29-6.12,7.17-9.79,8.65c-3,1.21-5.75,1.23-8.27,0.04
		c-2.52-1.19-4.44-3.37-5.72-6.56c-0.87-2.18-1.3-4.6-1.26-7.26c0.04-2.66,0.53-5.43,1.49-8.33c0.87-2.63,2.12-4.92,3.73-6.88
		c1.63-1.95,3.4-3.32,5.33-4.1c1.99-0.8,3.87-0.91,5.6-0.33c1.74,0.58,2.94,1.71,3.61,3.37c1.1,2.69,0.52,6.09-1.75,10.19
		c-2.27,4.1-5.85,8.12-10.76,12.06c0.9,2.21,2.16,3.72,3.78,4.54c1.63,0.81,3.42,0.83,5.34,0.05c3.49-1.41,6.59-4.86,9.32-10.37
		C818.88,377.4,820.89,370.45,822.2,362.06z M796.94,386.75c3.62-2.51,6.18-5.55,7.68-9.13c1.51-3.59,1.65-6.86,0.46-9.83
		c-0.41-1.01-0.96-1.7-1.67-2.06c-0.71-0.37-1.51-0.37-2.4-0.01c-2.21,0.9-3.73,3.36-4.58,7.38
		C795.58,377.14,795.76,381.69,796.94,386.75z"/>
	<path class="st5" d="M843.65,376.28c-0.96,1.34-1.98,2.5-3.04,3.47c-1.06,0.97-2.17,1.78-3.32,2.41c-2.32,1.28-4.42,1.91-6.29,1.87
		c-1.89-0.03-3.19-0.69-3.89-1.98c-0.56-1-0.6-2.07-0.11-3.19c0.49-1.13,1.38-2.05,2.7-2.77c0.39-0.21,0.79-0.39,1.19-0.54
		c0.41-0.14,0.81-0.24,1.22-0.29l0.18,0.31c-0.33,0.58-0.49,1.19-0.52,1.82c-0.01,0.63,0.12,1.22,0.42,1.76
		c0.43,0.8,1.19,1.24,2.27,1.32c1.07,0.08,2.22-0.22,3.46-0.9c1.93-1.06,3.26-2.43,4-4.1c0.73-1.67,0.71-3.22-0.08-4.66
		c-0.53-0.95-1.3-1.68-2.33-2.19c-1.02-0.52-3-0.96-5.93-1.36c-3.5-0.49-5.85-1-7.07-1.56c-1.21-0.56-2.1-1.35-2.67-2.37
		c-1.15-2.08-1-4.58,0.45-7.5c1.44-2.91,3.78-5.26,7.03-7.06c1.87-1.04,3.44-1.51,4.69-1.44c1.25,0.08,2.21,0.73,2.88,1.93
		c0.53,0.96,0.47,2.12-0.16,3.49c-0.62,1.38-1.68,2.54-3.17,3.49l-0.49-0.23c0.3-0.7,0.42-1.37,0.38-2.02
		c-0.04-0.65-0.22-1.25-0.53-1.82c-0.38-0.66-0.98-1.05-1.83-1.16c-0.84-0.1-1.76,0.13-2.77,0.68c-1.52,0.84-2.56,1.91-3.13,3.19
		c-0.56,1.29-0.53,2.48,0.08,3.59c0.79,1.44,3.15,2.39,7.05,2.85c1.38,0.18,2.45,0.33,3.21,0.44c2.01,0.33,3.62,0.84,4.84,1.51
		c1.22,0.66,2.14,1.55,2.75,2.66c0.45,0.79,0.69,1.68,0.75,2.66s-0.09,2.1-0.43,3.36c1.87-1.47,3.36-4.6,4.48-9.38
		c1.13-4.78,1.82-10.94,2.08-18.47c0.19,0.03,0.35,0.11,0.49,0.23c0.14,0.13,0.26,0.29,0.38,0.5c0.42,0.77,0.65,2.04,0.69,3.82
		c0.04,1.77-0.11,4-0.47,6.69c-0.71,5.7-1.8,10.17-3.3,13.41C848.29,371.96,846.24,374.48,843.65,376.28z"/>
</g>
<path class="st6" d="M655.69,207.59c30.47,11.94,48.94,27.56,48.94,44.66c0,37.5-88.76,67.89-198.25,67.89
	c-109.49,0-198.25-30.4-198.25-67.89c0-16.52,17.23-31.66,45.86-43.43c-43.15,13.92-70.09,33.67-70.09,55.57
	c0,42.16,99.8,76.34,222.9,76.34s222.9-34.18,222.9-76.34C729.7,241.83,701.12,221.56,655.69,207.59z"/>
<path class="st4" d="M137.82,418.13c-60.09-26.74-95.84-60.11-95.84-96.33c0-5.77,1.08-11.46,2.85-17.07
	c9.89-37.76,59.24-71.71,134.2-97.14C73.08,238.93,6,284.82,6,336.07c0,42.53,46.15,81.4,122.34,111.32L137.82,418.13z"/>
<path class="st4" d="M847.83,207.64c84.06,28.55,136.01,67.79,136.01,111.12c0,17.16-8.25,33.66-23.3,49.13
	c-15.07,16.91-38.35,32.6-68.05,46.62l10.12,31.24c73.7-29.69,118.12-67.93,118.12-109.67
	C1020.72,284.85,953.69,238.97,847.83,207.64z"/>
<path class="st5" d="M875.61,296.07c0,8.24-2.73,16.25-7.4,24.02l14.61,32.09c13.67-13.42,21.2-27.8,21.2-42.78
	c0-39.44-51.61-74.76-133.12-98.89C835.61,232.5,875.61,262.71,875.61,296.07z"/>
<path class="st5" d="M160.13,326.6c-6.29-9.05-9.71-18.48-9.71-28.18c0-4.45,0.83-8.82,2.19-13.14
	c7.62-29.07,45.61-55.21,103.33-74.8c-81.58,24.13-133.23,59.47-133.23,98.93c0,16.13,8.64,31.57,24.37,45.85L160.13,326.6z"/>
</svg>
