<svg width="25" height="23" viewBox="0 0 25 23" fill="none" xmlns="http://www.w3.org/2000/svg">
<path d="M11.1592 2.11845C11.98 1.20336 13.4729 1.20352 14.2935 2.11878L21.4222 10.0699C22.0562 10.7771 22.0738 11.8093 21.4643 12.5354L14.3065 21.0624C13.4836 22.0427 11.9099 22.0424 11.0874 21.0619L3.95847 12.564C3.34922 11.8377 3.36713 10.8056 4.00125 10.0986L11.1592 2.11845Z" fill="#107B89" fill-opacity="0.4"/>
<path d="M11.1553 5.40263C11.9761 4.48754 13.469 4.4877 14.2896 5.40296L18.5753 10.1831C19.2093 10.8902 19.2269 11.9225 18.6174 12.6486L14.3113 17.7784C13.4884 18.7587 11.9147 18.7584 11.0922 17.7779L6.80624 12.6689C6.19699 11.9427 6.2149 10.9105 6.84902 10.2036L11.1553 5.40263Z" fill="#1E8E9D"/>
</svg>
